<svg width="22" height="22" viewBox="0 0 22 22" fill="none" xmlns="http://www.w3.org/2000/svg">
<path d="M4 4C4 2.89543 4.89543 2 6 2H16C17.1046 2 18 2.89543 18 4V16C18 16.5523 17.5523 17 17 17H5C4.44772 17 4 16.5523 4 16V4Z" fill="#AAAAAA"/>
<path d="M4 4C4 2.89543 4.89543 2 6 2H16C17.1046 2 18 2.89543 18 4V16C18 16.5523 17.5523 17 17 17H5C4.44772 17 4 16.5523 4 16V4Z" fill="url(#paint0_radial_8_32)"/>
<rect x="5" y="17" width="12" height="3" fill="#999999"/>
<path fill-rule="evenodd" clip-rule="evenodd" d="M16.9583 17H5.04167V18H16.9583V17Z" fill="black" fill-opacity="0.3"/>
<rect x="5" y="3" width="12" height="9" rx="2" fill="#9AD5F4"/>
<rect x="5" y="3" width="12" height="9" rx="2" fill="url(#paint1_radial_8_32)"/>
<path fill-rule="evenodd" clip-rule="evenodd" d="M5 9V10C5 11.1046 5.89543 12 7 12H15C16.1046 12 17 11.1046 17 10V9C17 10.1046 16.1046 11 15 11H7C5.89543 11 5 10.1046 5 9Z" fill="white" fill-opacity="0.5"/>
<path fill-rule="evenodd" clip-rule="evenodd" d="M7 3C5.89543 3 5 3.89543 5 5V6C5 4.89543 5.89543 4 7 4H15C16.1046 4 17 4.89543 17 6V5C17 3.89543 16.1046 3 15 3H7Z" fill="black" fill-opacity="0.2"/>
<g opacity="0.65">
<path d="M11 15C11 14.4477 11.4477 14 12 14H16C16.5523 14 17 14.4477 17 15V15H11V15Z" fill="#232629"/>
<path d="M11 15H17V15C17 15.5523 16.5523 16 16 16H12C11.4477 16 11 15.5523 11 15V15Z" fill="white"/>
</g>
<circle cx="6.5" cy="7.5" r="0.5" fill="black"/>
<circle cx="15.5" cy="7.5" r="0.5" fill="black"/>
<path d="M13 7.5C13 7.76264 12.9483 8.02272 12.8478 8.26537C12.7472 8.50802 12.5999 8.7285 12.4142 8.91421C12.2285 9.09993 12.008 9.24725 11.7654 9.34776C11.5227 9.44827 11.2626 9.5 11 9.5C10.7374 9.5 10.4773 9.44827 10.2346 9.34776C9.99198 9.24725 9.7715 9.09993 9.58579 8.91421C9.40007 8.7285 9.25275 8.50802 9.15224 8.26537C9.05173 8.02272 9 7.76264 9 7.5" stroke="black" stroke-width="1.25" stroke-linecap="round" stroke-linejoin="round"/>
<path opacity="0.8" d="M5 15C5 14.7348 5.10536 14.4804 5.29289 14.2929C5.48043 14.1054 5.73478 14 6 14C6.26522 14 6.51957 14.1054 6.70711 14.2929C6.89464 14.4804 7 14.7348 7 15L6 15L5 15Z" fill="#71FF71"/>
<path opacity="0.8" d="M7 15C7 15.2652 6.89464 15.5196 6.70711 15.7071C6.51957 15.8946 6.26522 16 6 16C5.73478 16 5.48043 15.8946 5.29289 15.7071C5.10536 15.5196 5 15.2652 5 15L6 15H7Z" fill="#FF5757"/>
<defs>
<radialGradient id="paint0_radial_8_32" cx="0" cy="0" r="1" gradientUnits="userSpaceOnUse" gradientTransform="translate(11 2) rotate(90) scale(15 14)">
<stop stop-color="white" stop-opacity="0.4"/>
<stop offset="1" stop-color="white" stop-opacity="0"/>
</radialGradient>
<radialGradient id="paint1_radial_8_32" cx="0" cy="0" r="1" gradientUnits="userSpaceOnUse" gradientTransform="translate(11 3) rotate(90) scale(9 12)">
<stop stop-color="white" stop-opacity="0.4"/>
<stop offset="1" stop-color="white" stop-opacity="0"/>
</radialGradient>
</defs>
</svg>
