<svg width="48" height="48" viewBox="0 0 48 48" fill="none" xmlns="http://www.w3.org/2000/svg">
<path d="M10 9C10 7.89543 10.8954 7 12 7H36C37.1046 7 38 7.89543 38 9V38C38 38.5523 37.5523 39 37 39H11C10.4477 39 10 38.5523 10 38V9Z" fill="#AAAAAA"/>
<path d="M10 9C10 7.89543 10.8954 7 12 7H36C37.1046 7 38 7.89543 38 9V38C38 38.5523 37.5523 39 37 39H11C10.4477 39 10 38.5523 10 38V9Z" fill="url(#paint0_radial_2_2)"/>
<path fill-rule="evenodd" clip-rule="evenodd" d="M10 37V38C10 38.5523 10.4477 39 11 39H37C37.5523 39 38 38.5523 38 38V37C38 37.5523 37.5523 38 37 38H11C10.4477 38 10 37.5523 10 37Z" fill="black" fill-opacity="0.2"/>
<path fill-rule="evenodd" clip-rule="evenodd" d="M12 7C10.8954 7 10 7.89543 10 9V10C10 8.89543 10.8954 8 12 8H36C37.1046 8 38 8.89543 38 10V9C38 7.89543 37.1046 7 36 7H12Z" fill="white" fill-opacity="0.2"/>
<rect x="11" y="39" width="26" height="5" fill="#999999"/>
<path fill-rule="evenodd" clip-rule="evenodd" d="M37 39H11V40H37V39Z" fill="black" fill-opacity="0.3"/>
<rect x="14" y="11" width="20" height="16" rx="2" fill="#9AD5F4"/>
<rect x="14" y="11" width="20" height="16" rx="2" fill="url(#paint1_radial_2_2)"/>
<path fill-rule="evenodd" clip-rule="evenodd" d="M14 24V25C14 26.1046 14.8954 27 16 27H32C33.1046 27 34 26.1046 34 25V24C34 25.1046 33.1046 26 32 26H16C14.8954 26 14 25.1046 14 24Z" fill="white" fill-opacity="0.5"/>
<path fill-rule="evenodd" clip-rule="evenodd" d="M16 11C14.8954 11 14 11.8954 14 13V14C14 12.8954 14.8954 12 16 12H32C33.1046 12 34 12.8954 34 14V13C34 11.8954 33.1046 11 32 11H16Z" fill="black" fill-opacity="0.3"/>
<path opacity="0.65" d="M24 34C24 33.4477 24.4477 33 25 33H34C34.5523 33 35 33.4477 35 34H24Z" fill="#232629"/>
<path opacity="0.65" d="M24 34H35C35 34.5523 34.5523 35 34 35H25C24.4477 35 24 34.5523 24 34Z" fill="white"/>
<circle cx="17" cy="18" r="1" fill="black"/>
<circle cx="31" cy="18" r="1" fill="black"/>
<path d="M27 18C27 18.394 26.9224 18.7841 26.7716 19.1481C26.6209 19.512 26.3999 19.8427 26.1213 20.1213C25.8427 20.3999 25.512 20.6209 25.1481 20.7716C24.7841 20.9224 24.394 21 24 21C23.606 21 23.2159 20.9224 22.8519 20.7716C22.488 20.6209 22.1573 20.3999 21.8787 20.1213C21.6001 19.8427 21.3791 19.512 21.2284 19.1481C21.0776 18.7841 21 18.394 21 18" stroke="black" stroke-width="1.5" stroke-linecap="round" stroke-linejoin="round"/>
<path opacity="0.8" d="M14 34C14 33.7348 14.1054 33.4804 14.2929 33.2929C14.4804 33.1054 14.7348 33 15 33C15.2652 33 15.5196 33.1054 15.7071 33.2929C15.8946 33.4804 16 33.7348 16 34L15 34L14 34Z" fill="#71FF71"/>
<path opacity="0.8" d="M16 34C16 34.2652 15.8946 34.5196 15.7071 34.7071C15.5196 34.8946 15.2652 35 15 35C14.7348 35 14.4804 34.8946 14.2929 34.7071C14.1054 34.5196 14 34.2652 14 34L15 34H16Z" fill="#FF5757"/>
<defs>
<radialGradient id="paint0_radial_2_2" cx="0" cy="0" r="1" gradientUnits="userSpaceOnUse" gradientTransform="translate(24 7) rotate(90) scale(32 28)">
<stop stop-color="white" stop-opacity="0.4"/>
<stop offset="1" stop-color="white" stop-opacity="0"/>
</radialGradient>
<radialGradient id="paint1_radial_2_2" cx="0" cy="0" r="1" gradientUnits="userSpaceOnUse" gradientTransform="translate(24 11) rotate(90) scale(16 20)">
<stop stop-color="white" stop-opacity="0.4"/>
<stop offset="1" stop-color="white" stop-opacity="0"/>
</radialGradient>
</defs>
</svg>
